<?xml version="1.0" encoding="UTF-8"?>
<svg id="Calque_1" data-name="Calque 1" xmlns="http://www.w3.org/2000/svg" viewBox="0 0 1000 1000">
  <defs>
    <style>
      .cls-1 {
        fill: #1e1e1e;
      }

      .cls-1, .cls-2 {
        stroke-width: 0px;
      }

      .cls-2 {
        fill: #ed4300;
      }
    </style>
  </defs>
  <rect class="cls-1" x="-47.15" y="-39.25" width="1072" height="1072"/>
  <g>
    <path class="cls-2" d="M569.04,509c-65.17,0-118-52.83-118-118s52.83-118,118-118v236Z"/>
    <path class="cls-2" d="M569.04,616.17c65.17,0,118-52.83,118-118s-52.83-118-118-118v236Z"/>
  </g>
  <g>
    <path class="cls-2" d="M144.33,616.17c-65.17,0-118-52.83-118-118s52.83-118,118-118v236Z"/>
    <path class="cls-2" d="M144.33,616.17c65.17,0,118-52.83,118-118h-118s0,118,0,118Z"/>
  </g>
  <g>
    <path class="cls-2" d="M723.71,498.17c0-65.17,52.83-118,118-118s118,52.83,118,118h-236Z"/>
    <path class="cls-2" d="M723.71,616.17c65.17,0,118-52.83,118-118h-118s0,118,0,118Z"/>
    <path class="cls-2" d="M841.71,498.17c0,65.17,52.83,118,118,118v-118s-118,0-118,0Z"/>
  </g>
  <g>
    <path class="cls-2" d="M290.18,616.17c65.17,0,118-52.83,118-118h-118v118Z"/>
    <path class="cls-2" d="M408.18,380.17c-65.17,0-118,52.83-118,118h118v-118Z"/>
    <circle class="cls-2" cx="349.18" cy="308.17" r="59"/>
  </g>
</svg>